<?xml version="1.0" standalone="no"?><!DOCTYPE svg PUBLIC "-//W3C//DTD SVG 1.1//EN" "http://www.w3.org/Graphics/SVG/1.1/DTD/svg11.dtd"><svg t="1628058150604" class="icon" viewBox="0 0 1155 1024" version="1.1" xmlns="http://www.w3.org/2000/svg" p-id="14724" xmlns:xlink="http://www.w3.org/1999/xlink" width="225.5859375" height="200"><defs><style type="text/css"></style></defs><path d="M1039.4 0h-923.91C53.896 0 0.001 53.895 0.001 115.489v76.992c0 61.594 53.895 115.489 115.489 115.489h38.496v600.541c0 61.594 53.895 115.489 115.489 115.489h615.94c61.594 0 115.489-53.895 115.489-115.489V307.97h38.496c61.594 0 115.489-53.895 115.489-115.489v-76.992C1154.889 53.895 1100.994 0 1039.4 0zM923.912 908.511c0 23.098-15.398 38.496-38.496 38.496h-615.94c-23.098 0-38.496-23.098-38.496-38.496V307.97H923.912v600.541z m153.985-716.03c0 23.098-15.398 38.496-38.496 38.496h-923.91c-23.098 0-38.496-15.398-38.496-38.496v-76.992c0-23.098 15.398-38.496 38.496-38.496h923.91c23.098 0 38.496 15.398 38.496 38.496v76.992z" p-id="14725"></path><path d="M769.927 400.361H384.965v192.481h384.962V400.361zM692.934 515.85H461.957v-38.496h230.977v38.496z" p-id="14726"></path></svg>