<?xml version="1.0" standalone="no"?><!DOCTYPE svg PUBLIC "-//W3C//DTD SVG 1.1//EN" "http://www.w3.org/Graphics/SVG/1.1/DTD/svg11.dtd"><svg t="1628058274888" class="icon" viewBox="0 0 1024 1024" version="1.1" xmlns="http://www.w3.org/2000/svg" p-id="16541" xmlns:xlink="http://www.w3.org/1999/xlink" width="200" height="200"><defs><style type="text/css"></style></defs><path d="M222.53 801.72a653.192 653.192 0 0 0 289.41 88.912 636.255 636.255 0 0 0 289.408-88.912V1024l-289.409-88.912L222.53 1024V801.72zM511.94 0.089a466.788 466.788 0 1 0 466.787 466.788A466.788 466.788 0 0 0 511.94 0.044z m0 894.722a427.934 427.934 0 1 1 427.666-427.89A428.512 428.512 0 0 1 511.94 894.767zM401.243 356.893H490.6v132.079h-88.912v45.256h356.538V488.75h-89.802V356.67h89.802v-44.455h-89.802v-88.912h-44.456v88.912h-88.467v-88.912h-44.9v88.912h-89.357v44.456z m134.257 0h88.467v132.079h-88.467v-132.08z m80.91 238.284a975.543 975.543 0 0 1 80.91 124.477l42.233-32.275a976.076 976.076 0 0 0-84.466-118.83zM497.713 572.95a467.5 467.5 0 0 1-79.576 115.897l40.9 32.275a551.655 551.655 0 0 0 81.799-125.677zM311.887 712.23h46.234V357.694a563.836 563.836 0 0 0 43.123-124.166 335.065 335.065 0 0 0-46.235-10.491c-26.229 102.249-54.68 121.543-130.7 205.831l33.786 39.477c14.67-17.293 43.123-32.897 53.792-46.945v290.83z" p-id="16542"></path></svg>