<?xml version="1.0" standalone="no"?><!DOCTYPE svg PUBLIC "-//W3C//DTD SVG 1.1//EN" "http://www.w3.org/Graphics/SVG/1.1/DTD/svg11.dtd"><svg t="1628057500615" class="icon" viewBox="0 0 1024 1024" version="1.1" xmlns="http://www.w3.org/2000/svg" p-id="9984" xmlns:xlink="http://www.w3.org/1999/xlink" width="200" height="200"><defs><style type="text/css"></style></defs><path d="M171.670588 963.222588c-10.119529 0-35.358118-5.12-35.358117-15.36v-450.56H15.119059c-4.999529 0-10.059294-5.180235-15.119059-10.24C0 481.882353 0 456.161882 5.059765 451.041882L494.351059 0h10.059294c5.059765 0 5.059765 0 10.119529 5.12l156.55153 143.721412V82.100706c0-10.24 4.999529-15.36 15.119059-15.36h106.014117c10.119529 0 15.179294 5.12 15.179294 15.36v173.959529L1024 460.860235v10.24c0 5.12-25.298824 25.660235-30.298353 25.660236h-126.253176v158.599529h-55.536942V461.402353c0-10.300235 15.179294-15.420235 25.298824-15.420235h111.073882l-176.24847-153.961412c-5.059765-5.12-10.119529-5.12-10.11953-10.24l5.059765-174.019765h-60.596706v102.640941c0 5.12-5.059765 15.420235-10.059294 20.48h-5.059765c-5.059765 0-15.179294-5.059765-20.178823-10.24L504.410353 66.740706 95.954824 445.982118H171.670588c10.119529 0 15.179294 5.12 15.179294 15.36v445.982117l423.634824 5.12V963.764706H171.670588v-0.542118z" p-id="9985"></path><path d="M935.333647 869.195294l-157.033412-147.094588a27.708235 27.708235 0 0 0-37.948235 0 23.853176 23.853176 0 0 0 0 35.659294l156.491294 147.034353c8.252235 7.830588 12.408471 17.829647 12.408471 28.431059a39.755294 39.755294 0 0 1-12.408471 28.370823 46.08 46.08 0 0 1-60.476235 0l-156.370824-147.034353a28.310588 28.310588 0 0 0-35.538823-1.686588 29.876706 29.876706 0 0 1-4.216471 1.686588c-75.776 37.888-168.839529 25.057882-229.857882-31.744-43.248941-40.658824-63.969882-98.605176-54.512941-156.009411l87.100235 81.92c24.335059 22.829176 63.427765 22.829176 87.702588 0l75.294118-70.776471a56.079059 56.079059 0 0 0 18.311529-41.200941c0-15.600941-6.505412-30.117647-18.371764-41.200941l-87.100236-81.92c61.018353-8.312471 122.639059 10.601412 165.888 51.260235a176.489412 176.489412 0 0 1 56.922353 132.577882c0 6.686118 2.349176 12.830118 7.649883 17.829647 4.818824 4.999529 11.866353 7.830588 18.974117 7.830589a25.539765 25.539765 0 0 0 27.286588-24.515765c1.807059-63.548235-24.877176-124.265412-72.282353-168.779294-69.330824-65.174588-172.995765-85.835294-264.854588-52.404706-13.613176 4.999529-20.720941 19.516235-15.420235 32.346353 1.204706 3.312941 3.614118 6.083765 5.963294 8.31247l120.229647 113.121883a7.770353 7.770353 0 0 1 0 11.685647L493.929412 673.611294a8.975059 8.975059 0 0 1-12.408471 0L361.833412 560.549647a27.708235 27.708235 0 0 0-43.851294 8.372706c-35.538824 85.775059-13.613176 183.777882 55.717647 248.952471a257.807059 257.807059 0 0 0 175.284706 68.005647c37.345882 0 73.487059-7.830588 107.279058-22.889412l142.757647 134.324706c17.829647 17.227294 42.706824 26.684235 68.186353 26.684235 25.479529 0 50.356706-9.456941 68.065883-26.744471A86.738824 86.738824 0 0 0 963.764706 933.225412a90.352941 90.352941 0 0 0-28.431059-64.090353z" p-id="9986"></path></svg>