<?xml version="1.0" standalone="no"?><!DOCTYPE svg PUBLIC "-//W3C//DTD SVG 1.1//EN" "http://www.w3.org/Graphics/SVG/1.1/DTD/svg11.dtd"><svg t="1628057738439" class="icon" viewBox="0 0 1024 1024" version="1.1" xmlns="http://www.w3.org/2000/svg" p-id="11788" xmlns:xlink="http://www.w3.org/1999/xlink" width="200" height="200"><defs><style type="text/css"></style></defs><path d="M456.72448 386.22208c0 50.92352-41.28768 92.20096-92.2112 92.20096H180.10624c-50.92352 0-92.2112-41.28256-92.2112-92.20096V201.80992c0-50.92352 41.28768-92.20608 92.2112-92.20608h184.41216c50.92352 0 92.2112 41.28256 92.2112 92.20608v184.41216zM456.72448 850.90816c0 50.92352-41.28768 92.20608-92.2112 92.20608H180.10624c-50.92352 0-92.2112-41.28256-92.2112-92.20608v-184.41216c0-50.92864 41.28768-92.20608 92.2112-92.20608h184.41216c50.92352 0 92.2112 41.27744 92.2112 92.20608v184.41216zM921.41568 850.90816c0 50.92352-41.28768 92.20608-92.2112 92.20608h-184.41216c-50.92352 0-92.2112-41.28256-92.2112-92.20608v-184.41216c0-50.92864 41.28256-92.20608 92.2112-92.20608h184.41216c50.9184 0 92.2112 41.27744 92.2112 92.20608v184.41216zM932.59776 228.8128c36.00384 36.00896 35.99872 94.39232-0.00512 130.40128L802.2016 489.60512c-36.00384 36.0192-94.39744 36.0192-130.40128 0.01024L541.39904 359.2192c-36.01408-36.01408-36.00384-94.39232 0-130.40128l130.40128-130.39104c36.00896-36.01408 94.39744-36.0192 130.40128-0.00512l130.39616 130.39104z" fill="" p-id="11789"></path></svg>