<?xml version="1.0" standalone="no"?><!DOCTYPE svg PUBLIC "-//W3C//DTD SVG 1.1//EN" "http://www.w3.org/Graphics/SVG/1.1/DTD/svg11.dtd"><svg t="1628057972999" class="icon" viewBox="0 0 1024 1024" version="1.1" xmlns="http://www.w3.org/2000/svg" p-id="12904" xmlns:xlink="http://www.w3.org/1999/xlink" width="200" height="200"><defs><style type="text/css"></style></defs><path d="M959.928 300.647H872.02V149.918a42.534 42.534 0 0 0-42.535-42.534H680.446V41.858A41.655 41.655 0 0 0 638.926 0H400.966c-21.64 0-35.231 0-44.293 0.609L246.854 0a41.655 41.655 0 0 0-41.587 41.858v65.526H69.279a42.534 42.534 0 0 0-42.534 42.534V889.5a135.244 135.244 0 0 0 135.244 134.094l730.317 0.406h4.53a100.419 100.419 0 0 0 100.352-100.148V338.11a37.192 37.192 0 0 0-37.26-37.463zM272.888 67.622h339.936v39.559H272.89z m-110.9 881.588a60.86 60.86 0 0 1-60.86-60.86V181.768h696.98l-0.473 707.732v34.352a97.781 97.781 0 0 0 3.45 25.696z m760.748-25.358a25.9 25.9 0 0 1-25.967 25.764 25.223 25.223 0 0 1-25.155-25.764l0.406-548.82h50.58z" p-id="12905"></path><path d="M222.848 435.283h182.58a37.192 37.192 0 0 0 0-74.384h-182.58a37.192 37.192 0 1 0 0 74.384z m412.495 114.822H222.848a37.192 37.192 0 0 0 0 74.384h412.495a37.192 37.192 0 0 0 0-74.384z m0 189.274H222.848a37.192 37.192 0 0 0 0 74.384h412.495a37.192 37.192 0 0 0 0-74.384z" p-id="12906"></path></svg>