<?xml version="1.0" standalone="no"?><!DOCTYPE svg PUBLIC "-//W3C//DTD SVG 1.1//EN" "http://www.w3.org/Graphics/SVG/1.1/DTD/svg11.dtd"><svg t="1638509579687" class="icon" viewBox="0 0 1024 1024" version="1.1" xmlns="http://www.w3.org/2000/svg" p-id="3968" xmlns:xlink="http://www.w3.org/1999/xlink" width="200" height="200"><defs><style type="text/css"></style></defs><path d="M896 755.2L812.8 89.6c0-12.8-6.4-19.2-19.2-25.6s-19.2 0-25.6 6.4L140.8 614.4c-12.8 6.4-12.8 19.2-12.8 25.6s12.8 19.2 25.6 19.2l185.6 32c12.8 0 32-6.4 32-25.6s-6.4-25.6-25.6-32l-121.6-19.2 537.6-467.2 70.4 576-313.6-51.2 134.4-153.6c12.8-12.8 12.8-32 0-38.4-12.8-12.8-25.6-12.8-38.4-6.4l-179.2 204.8c-6.4 6.4-12.8 19.2-6.4 25.6l44.8 230.4c0 12.8 12.8 19.2 19.2 25.6s19.2 0 25.6-6.4l134.4-153.6c6.4-6.4 6.4-12.8 6.4-25.6 0-6.4-6.4-19.2-12.8-19.2l211.2 38.4h6.4c19.2-6.4 32-19.2 32-38.4 0 6.4 0 0 0 0z m-281.6 0L512 870.4l-25.6-147.2c6.4 0 6.4 6.4 12.8 6.4l128 25.6c-6.4-6.4-12.8-6.4-12.8 0z" fill="#999999" p-id="3969"></path></svg>