<?xml version="1.0" standalone="no"?><!DOCTYPE svg PUBLIC "-//W3C//DTD SVG 1.1//EN" "http://www.w3.org/Graphics/SVG/1.1/DTD/svg11.dtd"><svg t="1628058244820" class="icon" viewBox="0 0 1024 1024" version="1.1" xmlns="http://www.w3.org/2000/svg" p-id="15707" xmlns:xlink="http://www.w3.org/1999/xlink" width="200" height="200"><defs><style type="text/css"></style></defs><path d="M762.88 643.413333c-51.2 0-98.986667 18.773333-133.12 56.32-35.84 34.133333-56.32 83.626667-56.32 133.12 0 51.2 18.773333 98.986667 56.32 133.12 35.84 35.84 83.626667 56.32 134.826667 56.32s98.986667-18.773333 133.12-56.32c35.84-35.84 56.32-83.626667 56.32-133.12 0-51.2-18.773333-98.986667-56.32-133.12-34.133333-35.84-83.626667-56.32-134.826667-56.32z m49.493333 141.653334l52.906667 8.533333c13.653333 1.706667 18.773333 18.773333 10.24 29.013333L836.266667 858.453333c-3.413333 3.413333-5.12 10.24-5.12 15.36l8.533333 52.906667c1.706667 13.653333-11.946667 23.893333-25.6 18.773333L768 919.893333c-5.12-3.413333-10.24-3.413333-15.36 0l-47.786667 25.6c-11.946667 6.826667-27.306667-3.413333-25.6-18.773333l8.533334-52.906667c1.706667-5.12-1.706667-11.946667-5.12-15.36l-39.253334-37.546666c-10.24-10.24-5.12-27.306667 10.24-29.013334l52.906667-8.533333c5.12 0 10.24-5.12 13.653333-8.533333l23.893334-47.786667c6.826667-11.946667 23.893333-11.946667 30.72 0l23.893333 47.786667c3.413333 5.12 8.533333 8.533333 13.653333 10.24z" p-id="15708"></path><path d="M873.813333 196.266667l-167.253333-170.666667C689.493333 10.24 667.306667 0 641.706667 0H145.066667C104.106667 0 69.973333 34.133333 69.973333 76.8v826.026667c0 42.666667 34.133333 76.8 76.8 76.8h431.786667c-37.546667-40.96-63.146667-81.92-63.146667-145.066667 0-133.12 112.64-245.76 250.88-245.76 59.733333 0 93.866667 20.48 136.533334 54.613333V261.12c-1.706667-18.773333-13.653333-49.493333-29.013334-64.853333zM715.093333 460.8H256c-22.186667 0-39.253333-17.066667-39.253333-39.253333 0-22.186667 17.066667-39.253333 39.253333-39.253334h460.8c22.186667 0 39.253333 17.066667 39.253333 39.253334 0 22.186667-18.773333 39.253333-40.96 39.253333zM256 643.413333c-22.186667 0-39.253333-17.066667-39.253333-39.253333 0-22.186667 17.066667-39.253333 39.253333-39.253333h204.8c22.186667 0 39.253333 17.066667 39.253333 39.253333 0 22.186667-18.773333 39.253333-40.96 39.253333H256z m459.093333-356.693333H256c-22.186667 0-39.253333-17.066667-39.253333-39.253333 0-22.186667 17.066667-39.253333 39.253333-39.253334h460.8c22.186667 0 39.253333 17.066667 39.253333 39.253334-1.706667 22.186667-18.773333 39.253333-40.96 39.253333z m0 0" p-id="15709"></path></svg>