<?xml version="1.0" standalone="no"?><!DOCTYPE svg PUBLIC "-//W3C//DTD SVG 1.1//EN" "http://www.w3.org/Graphics/SVG/1.1/DTD/svg11.dtd"><svg t="1628057158306" class="icon" viewBox="0 0 1077 1024" version="1.1" xmlns="http://www.w3.org/2000/svg" p-id="1942" xmlns:xlink="http://www.w3.org/1999/xlink" width="210.3515625" height="200"><defs><style type="text/css"></style></defs><path d="M268.934737 31.582316c65.967158 0 128.377263 25.869474 175.642947 72.59621A249.963789 249.963789 0 0 1 508.389053 346.004211l453.093052 453.254736a123.688421 123.688421 0 0 1 0 173.972211l-0.107789 0.107789a127.514947 127.514947 0 0 1-86.986105 35.085474c-33.253053 0-64.134737-12.826947-87.093895-36.217263l-453.039158-453.254737A248.400842 248.400842 0 0 1 92.698947 455.248842 249.209263 249.209263 0 0 1 32.229053 203.452632a30.612211 30.612211 0 0 1 22.474105-20.58779c10.778947-2.425263 21.665684 0.700632 29.318737 8.245895l104.555789 104.555789a45.594947 45.594947 0 0 0 32.87579 13.635369 45.433263 45.433263 0 0 0 32.768-13.527579l29.857684-29.911579a45.594947 45.594947 0 0 0 13.689263-32.87579 45.433263 45.433263 0 0 0-13.581474-32.768l-0.107789-0.107789L180.008421 95.016421a31.097263 31.097263 0 0 1 12.288-51.631158h0.10779C216.818526 35.570526 242.526316 31.582316 268.934737 31.582316z m53.248 590.686316c6.682947 0 13.096421 2.694737 17.785263 7.545263 8.569263 8.730947 9.647158 21.773474 3.179789 31.528421l-3.233684 3.934316-173.109894 173.109894a66.506105 66.506105 0 0 0 88.656842 98.896842l5.389473-4.850526 173.271579-173.002105a24.683789 24.683789 0 0 1 35.408842-0.161684 24.683789 24.683789 0 0 1 3.233685 31.63621l-3.233685 3.826526L296.421053 967.949474c-21.018947 21.935158-50.930526 34.438737-82.243369 34.438737-30.989474 0-60.362105-12.126316-82.782316-34.007579a117.490526 117.490526 0 0 1-6.467368-158.342737l6.467368-7.114106 173.002106-173.002105a24.683789 24.683789 0 0 1 17.785263-7.545263z m-52.816842-528.384h-1.940211l61.709474 61.709473c20.587789 20.641684 31.797895 47.966316 31.797895 76.90779 0 29.534316-11.317895 56.858947-31.905685 76.961684l-29.642105 29.642105c-20.641684 20.641684-47.966316 31.851789-76.907789 31.85179-29.534316 0-56.858947-11.317895-76.961685-31.797895L82.728421 277.611789a185.613474 185.613474 0 0 0 54.541474 133.497264 184.966737 184.966737 0 0 0 131.664842 54.433684c21.881263 0 43.439158-3.772632 63.649684-11.156211h0.161684a32.768 32.768 0 0 1 10.401684-1.724631h2.910316c7.275789 0.700632 13.904842 3.772632 19.348211 9.269894l466.620631 466.620632c11.210105 11.210105 26.516211 17.515789 42.954106 17.51579a59.984842 59.984842 0 0 0 60.685473-60.200422c0-16.168421-6.251789-31.258947-17.785263-42.738526L451.368421 376.508632a30.935579 30.935579 0 0 1-7.06021-32.768 187.068632 187.068632 0 0 0-43.223579-195.422316 184.966737 184.966737 0 0 0-131.664843-54.433684z m548.917894-64.673685l4.742737 4.20379 216.872421 216.872421a49.852632 49.852632 0 0 1 13.797053 45.487158l-1.670737 6.090105-57.020631 171.008a47.157895 47.157895 0 0 1-13.150316 23.390316 48.882526 48.882526 0 0 1-36.001684 15.198316 50.229895 50.229895 0 0 1-30.935579-10.24l-5.012211-4.473264L842.698105 425.768421 785.246316 483.220211a27.917474 27.917474 0 0 1-39.882105 0 27.863579 27.863579 0 0 1-3.233685-35.893895l3.233685-3.934316 75.290947-75.237053a27.863579 27.863579 0 0 1 35.893895-3.287579l3.934315 3.233685 80.842106 86.447158 57.290105-166.103579-209.434947-213.261474-112.316632 108.382316 54.649263 54.649263a28.887579 28.887579 0 0 1 8.407579 20.102737c0 5.928421-1.994105 11.856842-5.497263 16.707368l-2.910316 3.341474-75.290947 75.290947a27.917474 27.917474 0 0 1-39.828211 0 27.863579 27.863579 0 0 1-3.233684-35.893895l3.233684-3.934315 57.559579-53.733053-38.80421-38.804211a50.391579 50.391579 0 0 1-4.688842-66.021052l4.473263-5.173895L751.616 33.414737A50.337684 50.337684 0 0 1 818.283789 29.103158z" p-id="1943"></path></svg>