<?xml version="1.0" standalone="no"?><!DOCTYPE svg PUBLIC "-//W3C//DTD SVG 1.1//EN" "http://www.w3.org/Graphics/SVG/1.1/DTD/svg11.dtd"><svg t="1638509608025" class="icon" viewBox="0 0 1024 1024" version="1.1" xmlns="http://www.w3.org/2000/svg" p-id="4795" xmlns:xlink="http://www.w3.org/1999/xlink" width="200" height="200"><defs><style type="text/css"></style></defs><path d="M504.791 0.427C349.08 8.275 219.663 130.162 205.46 283.187c-9.555 102.863 31.266 199.136 105.038 263.502-133.276 76.332-206.92 224.025-206.92 383.448V1024H467.49V921.713H207.464c3.732-147.352 89.618-279.839 228.46-316.885l59.846-15.995c1.002-0.3 1.727-0.854 2.666-1.216v-57.115l-56.71-22.522c-92.263-36.598-147.48-130.333-130.952-230.615 14.333-86.995 84.948-157.078 173.095-171.943 134.193-22.628 250.983 79.125 250.983 207.261 0 48.691-17.276 96.145-48.563 133.639l80.106 65.006c46.58-55.771 72.237-126.302 72.237-198.645C838.61 134.875 687.185-8.787 504.792 0.427z" p-id="4796"></path><path d="M512.299 615.385h408.124v102.287H512.299V615.385zM512.299 768.453h408.124V870.74H512.299V768.453zM512.299 921.478h408.124v102.287H512.299V921.478z" p-id="4797"></path></svg>