<?xml version="1.0" standalone="no"?><!DOCTYPE svg PUBLIC "-//W3C//DTD SVG 1.1//EN" "http://www.w3.org/Graphics/SVG/1.1/DTD/svg11.dtd"><svg t="1628057294533" class="icon" viewBox="0 0 1024 1024" version="1.1" xmlns="http://www.w3.org/2000/svg" p-id="5487" xmlns:xlink="http://www.w3.org/1999/xlink" width="200" height="200"><defs><style type="text/css"></style></defs><path d="M145.230769 925.538462c-36.667077 0-68.903385-18.156308-96-53.956924-24.635077-32.551385-33.969231-65.516308-27.608615-97.831384 12.347077-63.310769 80.699077-104.034462 135.581538-136.763077 16.246154-9.728 31.232-18.589538 42.476308-27.017846 58.092308-43.618462 76.484923-93.459692 63.409231-171.913846-14.020923-84.086154 44.760615-154.112 79.261538-187.076923l-1.220923-1.732924 24.32-18.195692 0.374154-0.393846h0.059077L594.372923 59.076923 984.615385 575.153231l-254.660923 188.396307-0.807385-1.181538c-37.966769 22.153846-95.763692 39.502769-131.938462 39.502769a163.84 163.84 0 0 1-70.695384-15.438769c-72.349538-34.402462-123.588923-31.625846-183.335385 13.351385-11.126154 8.369231-23.788308 20.283077-37.671384 33.161846C261.297231 874.141538 206.217846 925.538462 145.211077 925.538462zM379.864615 300.563692c-26.289231 26.328615-64.630154 74.929231-55.926153 127.409231 16.974769 101.828923-9.885538 173.134769-87.11877 231.168-12.642462 9.452308-29.558154 19.692308-47.970461 30.641231-41.964308 25.028923-99.505231 59.372308-106.673231 95.783384-2.835692 14.651077 2.461538 30.641231 16.344615 49.033847 22.252308 29.420308 40.644923 29.420308 46.67077 29.420307 36.686769 0 81.821538-42.141538 118.114461-75.992615 15.635692-14.572308 30.070154-27.923692 42.732308-37.415385 77.587692-58.308923 153.540923-64.039385 246.941538-19.731692 42.673231 20.164923 105.019077-0.256 138.358154-18.412308L379.884308 300.563692z m47.655385-39.187692l314.88 416.334769 155.510154-115.003077-315.726769-417.476923-154.643693 116.145231z" p-id="5488"></path></svg>