<?xml version="1.0" standalone="no"?><!DOCTYPE svg PUBLIC "-//W3C//DTD SVG 1.1//EN" "http://www.w3.org/Graphics/SVG/1.1/DTD/svg11.dtd"><svg t="1628058052886" class="icon" viewBox="0 0 1024 1024" version="1.1" xmlns="http://www.w3.org/2000/svg" p-id="13747" xmlns:xlink="http://www.w3.org/1999/xlink" width="200" height="200"><defs><style type="text/css"></style></defs><path d="M883.597 1022.5H140.403c-29.722 0-53.903-24.076-53.903-53.671V55.171C86.5 25.577 110.681 1.5 140.403 1.5h743.193c29.723 0 53.903 24.077 53.903 53.671v913.658c0.001 29.595-24.18 53.671-53.902 53.671z m-732.097-65h721v-891h-721v891z" fill="" p-id="13748"></path><path d="M757 351H267c-17.673 0-32-14.327-32-32s14.327-32 32-32h490c17.673 0 32 14.327 32 32s-14.327 32-32 32zM757 544H267c-17.673 0-32-14.327-32-32 0-17.673 14.327-32 32-32h490c17.673 0 32 14.327 32 32 0 17.673-14.327 32-32 32zM757 737H267c-17.673 0-32-14.327-32-32s14.327-32 32-32h490c17.673 0 32 14.327 32 32s-14.327 32-32 32z" fill="" p-id="13749"></path></svg>