<?xml version="1.0" standalone="no"?><!DOCTYPE svg PUBLIC "-//W3C//DTD SVG 1.1//EN" "http://www.w3.org/Graphics/SVG/1.1/DTD/svg11.dtd"><svg t="1628057404879" class="icon" viewBox="0 0 1131 1024" version="1.1" xmlns="http://www.w3.org/2000/svg" p-id="9353" xmlns:xlink="http://www.w3.org/1999/xlink" width="220.8984375" height="200"><defs><style type="text/css"></style></defs><path d="M670.02271537 294.73911466c-6.4483104-1.48807147-20.83300267-5.4562624-20.83300374-21.82505067 0-62.49900907-41.6660064-118.5497088-104.16501546-141.86283093-6.94433387 18.35288427-18.84890773 70.93141547-26.7852896 116.06958933l-26.78529067-2.48011946V98.80967999c0-4.46421547-2.97614293-6.94433387-5.4562624-6.94433386H456.73244443c-2.48011947 0-5.4562624 3.47216747-5.4562624 6.94433386v146.3270464l-26.7852896 2.48011947c-8.4324064-45.13817387-19.84095573-97.71670507-26.78529066-116.06958933-62.49900907 22.3210752-103.668992 77.8757504-103.668992 140.870784 0 15.8727648-13.8886688 19.84095573-20.83300267 21.82505066-9.42445333 2.48011947-20.3369792 5.95228693-22.81709867 37.20179094h442.94932907c-2.97614293-31.24950507-13.8886688-34.225648-23.31312213-36.70576747z m-79.8598464 461.30221333c0-36.70576747 9.42445333-70.93141547 25.79324266-101.18887253a657.9020544 657.9020544 0 0 0-40.17793493-14.8807168c-1.984096-0.49602347-48.61034027-17.36083627-24.8011936-90.27634667l0.99204693-2.976144 1.984096-1.98409493c37.69781547-39.18588693 69.443344-78.86779733 72.41948694-168.15209707H318.34178097c2.97614293 91.26839467 34.225648 130.4542816 71.9234624 169.14414507l1.984096 1.98409493 0.992048 2.48011947c20.83300267 53.07455573-10.91252587 82.3399648-30.25745707 89.7803232h-0.49602453C260.80300977 676.18148266 151.67775537 740.16856319 151.67775537 795.72323839v24.80119467c0 62.0029856 114.08549333 96.2286336 320.43142933 96.2286336 70.93141547 0 130.95030613-3.96819093 179.5606464-11.9045728-38.19383893-37.69781547-61.50696213-90.27634667-61.50696213-148.80716587z" p-id="9354"></path><path d="M965.55025777 721.11330239H848.34330203V603.90731519a20.68187093 20.68187093 0 0 0-20.68380906-20.68380906h-13.7879136c-11.42405013 0-20.683808 9.25975787-20.68380907 20.68380906V721.11233386H675.98081457c-11.42405013 0-20.683808 9.26072747-20.68380907 20.683808v13.79082027c0 11.42405013 9.25975787 20.683808 20.68380907 20.68380906H793.18583323V893.48063359c0 11.42405013 9.26072747 20.683808 20.683808 20.683808h13.79082027c11.42405013 0 20.683808-9.25975787 20.68380907-20.683808V776.27173973H965.55413297a20.68187093 20.68187093 0 0 0 20.68380906-20.68380907v-13.78985067c-0.0038752-11.42405013-9.26363307-20.683808-20.68768426-20.68380906z" p-id="9355"></path></svg>