<?xml version="1.0" standalone="no"?><!DOCTYPE svg PUBLIC "-//W3C//DTD SVG 1.1//EN" "http://www.w3.org/Graphics/SVG/1.1/DTD/svg11.dtd"><svg t="1628057759528" class="icon" viewBox="0 0 1024 1024" version="1.1" xmlns="http://www.w3.org/2000/svg" p-id="12040" xmlns:xlink="http://www.w3.org/1999/xlink" width="200" height="200"><defs><style type="text/css"></style></defs><path d="M762.197 434.176V195.712L534.827 85.333 276.096 185.344v254.55l-233.43 90.24v299.22L301.44 938.668l227.456-110.934v-1.066l225.067 112 227.37-111.062V540.587L762.197 434.219z m-33.706 7.339l-193.707 87.552V350.976l193.792-90.453v180.992zM534.827 136.448l179.285 81.707-179.285 80.597-201.174-80.64 201.174-81.664zM100.139 562.987l201.173-81.707 179.413 81.707-179.285 80.597-201.301-80.64z m394.965 226.73l-193.707 93.824V695.808l193.792-90.453v184.32h-0.085z m69.973-226.73l188.8-81.707 179.286 81.707-179.286 80.597-188.8-80.64z m382.55 226.73l-193.75 93.824V695.808l193.75-90.453v184.32z" p-id="12041"></path></svg>