<?xml version="1.0" standalone="no"?><!DOCTYPE svg PUBLIC "-//W3C//DTD SVG 1.1//EN" "http://www.w3.org/Graphics/SVG/1.1/DTD/svg11.dtd"><svg t="1634022863859" class="icon" viewBox="0 0 1111 1024" version="1.1" xmlns="http://www.w3.org/2000/svg" p-id="3710" xmlns:xlink="http://www.w3.org/1999/xlink" width="216.9921875" height="200"><defs><style type="text/css"></style></defs><path d="M459.997349 552.687208c-6.395685 4.427782-13.775322 6.887661-21.646934 6.887661-200.23414 0-363.078121 162.352005-363.078122 363.078122 0 20.171007-16.727176 36.898183-36.898183 36.898183s-36.898183-16.727176-36.898183-36.898183c0-184.490915 116.106283-348.810824 289.773731-411.291748-129.389629-81.176003-168.747691-251.891596-87.571687-381.773201S456.061543-38.667672 585.451171 42.50833s168.747691 251.891596 87.571688 381.281225c-46.737699 74.288342-125.945798 122.009992-213.02551 128.897653z m-21.646934-72.812414c112.170477 0 203.185995-91.015518 203.185995-203.185995S550.520891 73.99478 438.350415 73.99478 235.16442 164.518322 235.16442 276.688799s91.015518 203.185995 203.185995 203.185995zM1064.635575 660.429903c-6.887661-19.679031-24.598789-33.454353-46.737698-36.406207l-143.656926-20.662983-61.496972-124.961847c-9.839515-18.695079-29.518546-31.48645-52.641408-31.486449-21.646934 0-42.801892 11.807419-52.641408 31.486449l-62.480923 124.961847-143.656926 20.662983c-20.662983 2.951855-39.358062 17.711128-46.737699 36.406207-6.887661 20.662983-1.967903 42.801892 13.775322 57.561165l104.79084 100.855034-24.598789 139.72112c-3.935806 21.646934 5.903709 42.801892 24.598789 55.593263 16.727176 10.823467 41.817941 12.79137 60.51302 2.951854l125.945798-65.432778 125.945799 65.432778c7.871612 3.935806 17.711128 6.887661 27.550643 6.887661 11.807419 0 22.630886-2.951855 32.470401-9.839515 18.695079-12.79137 27.550643-33.454353 23.614837-55.593263l-24.598788-139.72112 105.774791-99.871082c17.219152-16.235201 22.13891-37.882135 14.267297-58.545117z m-72.812414 32.470401l-97.903179 95.4433c-5.411734 5.411734-7.871612 13.283346-6.887661 21.154958l22.630886 131.357532c0.983952 4.427782-0.983952 7.871612-5.411734 10.331491-4.427782 2.459879-11.315443 3.44383-16.727176 0.983952L771.418014 890.674565c-3.44383-1.967903-6.887661-2.459879-10.331491-2.459879s-6.887661 0.983952-10.331492 2.459879l-117.090234 60.51302c-4.427782 2.459879-12.299394 1.967903-16.727176-0.983951-4.427782-2.459879-5.903709-6.887661-5.411734-10.331491l22.630886-131.357532c0.983952-7.871612-0.983952-15.743225-6.887661-21.154958l-96.919227-94.459349c-3.44383-2.459879-4.427782-6.887661-3.443831-10.331491 1.967903-4.427782 5.903709-7.871612 11.315443-7.871613l133.817411-19.187055c7.871612-0.983952 13.775322-5.903709 17.711127-12.299394L747.803177 526.612492c2.459879-4.427782 7.871612-6.887661 13.283346-6.887661s10.331491 2.459879 13.283346 6.887661l58.545117 115.614307c3.44383 6.887661 9.839515 11.315443 17.711128 12.299395l133.81741 19.187055c5.411734 0.983952 9.839515 3.44383 11.315443 7.871612 0.491976 4.427782-0.491976 8.855564-3.935806 11.315443z" p-id="3711"></path></svg>